<?xml version="1.0" standalone="no"?>
<!DOCTYPE svg PUBLIC "-//W3C//DTD SVG 20010904//EN"
 "http://www.w3.org/TR/2001/REC-SVG-20010904/DTD/svg10.dtd">
<svg version="1.0" xmlns="http://www.w3.org/2000/svg"
 width="1024.000000pt" height="296.000000pt" viewBox="0 0 1024.000000 296.000000"
 preserveAspectRatio="xMidYMid meet">

<g transform="translate(0.000000,296.000000) scale(0.100000,-0.100000)"
fill="#000000" stroke="none">
<path d="M877 2218 c-174 -298 -287 -496 -287 -504 1 -5 76 -139 168 -299
l168 -290 344 0 344 0 167 290 c93 160 168 295 168 300 0 6 -76 141 -168 300
l-169 290 -340 3 -341 2 -54 -92z m884 -218 c87 -151 159 -279 159 -285 0 -5
-72 -134 -159 -285 l-159 -275 -332 0 -332 0 -159 275 c-88 152 -158 283 -155
292 3 14 224 403 298 526 l20 32 330 -2 330 -3 159 -275z"/>
<path d="M1222 2194 l-52 -35 0 -62 0 -63 56 -27 57 -28 -7 -52 c-3 -29 -6
-62 -6 -73 0 -15 -15 -32 -49 -53 l-48 -31 -67 29 -66 30 0 60 0 61 -59 29
-58 30 -52 -35 -52 -35 3 -62 3 -62 56 -29 56 -30 51 33 50 32 64 -32 c35 -17
64 -32 64 -33 1 0 5 -24 9 -52 l6 -51 -64 -42 -65 -42 -52 26 -51 26 -54 -33
c-50 -30 -54 -36 -55 -69 0 -78 8 -94 66 -122 l53 -27 51 32 50 31 0 63 0 63
60 41 59 40 57 -27 56 -28 -7 -75 c-4 -41 -11 -76 -15 -78 -5 -2 -26 -16 -47
-31 -38 -27 -38 -28 -35 -90 l4 -62 56 -28 57 -28 53 34 c48 31 52 36 51 71
-3 75 -11 92 -64 120 l-50 27 3 70 c3 61 7 73 29 92 55 46 63 46 136 13 l67
-30 0 -60 0 -60 57 -29 57 -28 53 35 c46 30 53 39 53 67 0 77 -10 95 -65 122
l-53 26 -50 -31 -51 -31 -64 29 c-70 32 -77 41 -77 104 0 42 2 44 61 81 l62
38 55 -27 55 -27 54 36 c54 36 55 38 49 73 -3 21 -6 48 -6 62 0 21 -10 31 -56
53 l-57 28 -53 -35 -53 -35 2 -58 2 -57 -58 -39 c-64 -42 -77 -43 -136 -7 -29
19 -33 25 -27 52 3 17 6 47 6 68 0 35 5 41 50 70 50 32 50 32 50 86 0 61 -13
80 -78 113 l-39 20 -51 -35z m102 -6 c47 -22 56 -38 56 -100 0 -33 -5 -41 -46
-69 l-47 -32 -53 26 -54 27 0 57 c0 57 1 58 43 85 23 15 45 28 49 28 4 0 28
-10 52 -22z m337 -175 c46 -26 49 -31 50 -70 1 -24 2 -48 3 -55 1 -6 -20 -27
-46 -45 l-47 -34 -50 28 c-47 26 -51 31 -51 65 0 20 -3 43 -6 51 -4 11 10 27
43 51 26 20 50 36 52 36 1 0 25 -12 52 -27z m-674 -48 c42 -25 43 -27 43 -80
0 -53 -1 -55 -46 -86 l-47 -32 -53 26 -54 27 0 57 c0 57 1 58 43 85 52 34 60
34 114 3z m343 -170 l50 -25 0 -58 c0 -57 0 -57 -46 -86 l-45 -29 -40 18 c-51
23 -55 30 -64 91 l-7 52 44 30 c24 17 47 31 51 32 4 0 30 -11 57 -25z m354
-166 c37 -19 45 -28 50 -58 12 -74 9 -84 -39 -115 -49 -31 -68 -30 -122 4 -31
19 -33 23 -33 77 0 57 1 58 43 85 23 15 45 28 49 28 4 0 27 -10 52 -21z m-634
-131 l0 -58 -47 -29 -47 -29 -47 23 c-37 19 -48 31 -53 56 -14 71 -9 85 42
117 l47 29 53 -26 52 -25 0 -58z m290 -93 c47 -24 49 -26 55 -80 8 -61 6 -64
-63 -102 -32 -18 -33 -17 -80 7 l-47 25 -3 60 -2 60 42 27 c24 14 44 27 46 27
1 1 25 -10 52 -24z"/>
<path d="M3878 2275 c-86 -22 -155 -61 -224 -126 -106 -102 -153 -214 -161
-384 -10 -192 40 -330 158 -439 31 -29 81 -64 112 -79 64 -30 184 -57 257 -57
110 0 248 42 333 102 l27 19 0 260 0 259 -200 0 -200 0 0 -115 0 -115 80 0 80
0 0 -74 0 -74 -36 -12 c-69 -23 -179 1 -240 53 -120 101 -114 396 10 504 47
42 95 56 176 51 55 -3 77 -10 121 -37 44 -27 55 -30 64 -19 5 8 37 46 69 86
l59 73 -24 25 c-13 14 -61 44 -107 66 -79 40 -87 42 -190 45 -70 2 -127 -2
-164 -12z"/>
<path d="M2020 1740 l0 -530 140 0 140 0 0 530 0 530 -140 0 -140 0 0 -530z"/>
<path d="M2540 1740 l0 -530 140 0 140 0 0 170 0 170 90 0 c196 0 330 61 399
182 73 127 61 316 -25 416 -40 47 -130 94 -212 111 -30 6 -156 11 -292 11
l-240 0 0 -530z m476 294 c49 -24 64 -50 64 -114 0 -106 -54 -150 -184 -150
l-76 0 0 140 0 140 81 0 c54 0 92 -5 115 -16z"/>
<path d="M2637 1053 c-12 -11 -7 -41 7 -46 21 -8 50 17 43 37 -6 16 -38 22
-50 9z"/>
<path d="M6110 1045 c-11 -13 -11 -18 2 -31 20 -20 50 -7 46 20 -4 26 -30 32
-48 11z"/>
<path d="M8824 1045 c-7 -17 2 -45 14 -45 4 0 17 6 27 14 16 12 17 16 6 30
-17 20 -40 21 -47 1z"/>
<path d="M5780 875 c0 -168 1 -175 20 -175 18 0 20 7 20 64 0 110 23 146 94
146 52 0 66 -26 66 -127 0 -76 2 -83 20 -83 19 0 20 7 20 96 0 92 -1 97 -29
125 -24 23 -38 29 -73 29 -24 0 -53 -7 -64 -15 -31 -23 -34 -19 -34 50 0 58
-2 65 -20 65 -19 0 -20 -7 -20 -175z"/>
<path d="M6927 1030 c-52 -10 -88 -38 -114 -90 -59 -115 14 -244 136 -242 25
0 70 1 99 2 l53 2 -3 82 c-3 73 -5 81 -23 81 -17 0 -21 -8 -25 -55 -5 -54 -6
-55 -44 -68 -55 -18 -100 -6 -136 34 -53 61 -36 165 33 200 42 22 108 22 142
0 24 -16 29 -16 42 -3 14 13 13 17 -10 31 -25 17 -84 37 -102 35 -5 -1 -27 -5
-48 -9z"/>
<path d="M650 1010 c0 -16 7 -20 30 -20 l30 0 0 -125 0 -125 -30 0 c-23 0 -30
-4 -30 -20 0 -18 7 -20 85 -20 78 0 85 2 85 20 0 16 -7 20 -30 20 l-30 0 0
125 0 125 30 0 c23 0 30 4 30 20 0 18 -7 20 -85 20 -78 0 -85 -2 -85 -20z"/>
<path d="M3660 865 c0 -158 1 -165 20 -165 17 0 20 7 20 50 l0 50 66 0 c83 0
131 21 150 66 18 43 18 68 -2 105 -22 43 -68 59 -169 59 l-85 0 0 -165z m200
105 c30 -30 27 -83 -6 -109 -21 -16 -41 -21 -90 -21 l-64 0 0 75 0 75 70 0
c57 0 74 -4 90 -20z"/>
<path d="M2447 1003 c-14 -13 -7 -233 7 -267 16 -39 56 -53 99 -37 34 13 27
40 -9 33 -43 -8 -54 12 -54 99 l0 79 35 0 c28 0 35 4 35 20 0 16 -7 20 -35 20
-32 0 -35 2 -35 30 0 22 -5 30 -18 30 -10 0 -22 -3 -25 -7z"/>
<path d="M4520 877 c0 -147 8 -170 59 -182 33 -7 74 10 68 28 -2 7 -17 11 -35
9 -41 -4 -52 18 -52 107 l0 70 37 3 c27 2 39 8 41 21 3 14 -4 17 -37 17 -39 0
-41 2 -41 30 0 23 -4 30 -20 30 -19 0 -20 -7 -20 -133z"/>
<path d="M8630 879 c0 -73 5 -139 11 -150 14 -26 55 -41 91 -33 37 8 35 40 -2
36 -44 -4 -53 10 -58 97 l-5 81 42 0 c34 0 41 3 41 19 0 16 -8 20 -37 23 -33
3 -38 7 -41 31 -2 19 -9 27 -23 27 -18 0 -19 -8 -19 -131z"/>
<path d="M890 825 c0 -116 1 -125 19 -125 17 0 19 9 22 86 4 76 7 88 28 105
27 22 79 25 107 5 16 -12 20 -29 22 -105 4 -83 6 -91 24 -91 19 0 20 6 16 101
-3 96 -4 102 -31 125 -33 28 -101 33 -133 9 -25 -19 -34 -19 -34 0 0 8 -9 15
-20 15 -19 0 -20 -7 -20 -125z"/>
<path d="M1220 825 c0 -116 1 -125 19 -125 17 0 19 9 22 86 4 76 7 88 28 105
17 14 36 19 65 17 53 -4 66 -29 66 -130 0 -72 2 -78 21 -78 20 0 21 4 17 101
-3 96 -4 102 -31 125 -33 28 -101 33 -133 9 -25 -19 -34 -19 -34 0 0 8 -9 15
-20 15 -19 0 -20 -7 -20 -125z"/>
<path d="M1586 931 c-16 -11 -35 -30 -42 -43 -31 -55 -5 -151 47 -179 35 -18
110 -15 142 6 77 50 75 172 -3 219 -38 22 -108 20 -144 -3z m119 -27 c26 -10
48 -62 41 -99 -8 -40 -34 -64 -77 -71 -87 -14 -132 108 -60 163 17 13 69 17
96 7z"/>
<path d="M1810 947 c0 -2 24 -57 53 -123 46 -103 56 -119 78 -122 23 -3 29 6
77 117 29 66 52 123 52 126 0 3 -9 5 -19 5 -14 0 -29 -24 -61 -100 -24 -55
-46 -97 -50 -95 -4 3 -25 47 -46 100 -33 80 -42 95 -61 95 -13 0 -23 -1 -23
-3z"/>
<path d="M2136 919 c-61 -53 -57 -162 9 -205 34 -22 106 -22 139 0 23 14 26
14 26 1 0 -8 9 -15 20 -15 19 0 20 7 20 125 0 118 -1 125 -20 125 -12 0 -20
-7 -20 -16 0 -15 -2 -15 -25 0 -13 9 -45 16 -69 16 -36 0 -52 -6 -80 -31z
m153 -35 c42 -53 14 -135 -49 -149 -54 -12 -99 27 -100 86 0 56 31 89 85 89
35 0 48 -5 64 -26z"/>
<path d="M2640 825 c0 -118 1 -125 20 -125 19 0 20 7 20 125 0 118 -1 125 -20
125 -19 0 -20 -7 -20 -125z"/>
<path d="M2808 932 c-53 -32 -73 -114 -43 -172 39 -76 163 -87 219 -19 47 56
29 161 -34 194 -38 20 -108 19 -142 -3z m117 -28 c20 -8 45 -56 45 -87 0 -34
-34 -74 -69 -82 -42 -9 -87 17 -100 58 -26 77 46 141 124 111z"/>
<path d="M3080 825 c0 -118 1 -125 20 -125 18 0 20 7 20 65 0 113 29 152 106
143 40 -4 54 -38 54 -130 0 -71 2 -78 20 -78 19 0 20 7 20 96 0 92 -1 97 -29
125 -24 23 -38 29 -73 29 -24 0 -53 -7 -64 -15 -25 -19 -34 -19 -34 0 0 8 -9
15 -20 15 -19 0 -20 -7 -20 -125z"/>
<path d="M4014 917 c-61 -55 -55 -160 12 -204 35 -22 103 -22 138 1 23 14 26
14 26 1 0 -8 9 -15 20 -15 19 0 20 7 20 125 0 118 -1 125 -20 125 -12 0 -20
-7 -20 -16 0 -15 -2 -15 -25 0 -13 9 -45 16 -70 16 -37 0 -52 -6 -81 -33z
m151 -32 c48 -47 21 -135 -44 -150 -33 -7 -85 15 -95 40 -12 33 -6 83 15 109
28 36 89 37 124 1z"/>
<path d="M4330 825 c0 -118 1 -125 20 -125 18 0 20 7 20 80 0 73 3 83 25 105
13 14 33 25 45 25 13 0 20 7 20 20 0 24 -20 26 -60 5 -27 -14 -30 -14 -30 0 0
8 -9 15 -20 15 -19 0 -20 -7 -20 -125z"/>
<path d="M4710 825 l0 -125 25 0 c25 0 25 1 25 85 0 102 15 125 79 125 58 0
71 -24 71 -127 0 -76 2 -83 20 -83 19 0 20 7 20 96 0 92 -1 97 -29 125 -24 23
-38 29 -73 29 -24 0 -53 -7 -64 -15 -25 -19 -34 -19 -34 0 0 8 -9 15 -20 15
-19 0 -20 -7 -20 -125z"/>
<path d="M5078 932 c-76 -47 -74 -178 3 -217 58 -31 169 -17 169 20 0 22 -16
26 -46 10 -43 -22 -81 -19 -111 11 -14 14 -23 27 -21 29 3 3 46 13 97 24 50
10 95 21 98 25 3 3 2 20 -3 38 -20 67 -122 100 -186 60z m124 -41 c18 -16 30
-32 27 -35 -8 -8 -162 -37 -168 -31 -10 10 30 76 51 85 38 15 56 11 90 -19z"/>
<path d="M5340 825 c0 -118 1 -125 20 -125 18 0 20 7 20 58 0 105 24 152 79
152 14 0 21 6 21 20 0 27 -39 27 -74 -1 l-26 -20 0 20 c0 14 -6 21 -20 21 -19
0 -20 -7 -20 -125z"/>
<path d="M5548 931 c-62 -49 -41 -102 48 -122 31 -7 63 -19 71 -28 14 -13 13
-17 -7 -33 -27 -22 -59 -23 -105 -4 -29 13 -34 12 -39 -1 -9 -22 1 -31 44 -43
72 -19 160 16 160 65 0 36 -23 55 -90 73 -53 14 -66 21 -68 40 -5 31 37 46 90
31 32 -8 43 -8 49 3 13 21 -7 31 -68 36 -48 3 -63 0 -85 -17z"/>
<path d="M6110 825 c0 -118 1 -125 20 -125 19 0 20 7 20 125 0 118 -1 125 -20
125 -19 0 -20 -7 -20 -125z"/>
<path d="M6250 775 c0 -168 1 -175 20 -175 18 0 20 7 20 65 l0 65 26 -16 c33
-22 105 -22 139 0 51 33 68 110 39 172 -29 60 -110 82 -174 49 -27 -14 -30
-14 -30 0 0 8 -9 15 -20 15 -19 0 -20 -7 -20 -175z m187 113 c16 -15 23 -33
23 -59 0 -51 -8 -67 -41 -84 -42 -22 -67 -18 -101 15 -27 27 -30 36 -25 73 4
26 14 48 27 59 31 25 88 23 117 -4z"/>
<path d="M7215 928 c-29 -23 -55 -74 -55 -109 0 -36 31 -89 63 -106 41 -21
120 -20 153 2 24 15 25 19 11 32 -14 14 -18 14 -38 -1 -13 -9 -34 -16 -47 -16
-30 0 -78 25 -85 44 -6 15 22 23 143 44 36 6 46 12 48 29 11 79 -124 136 -193
81z m108 -19 c22 -10 52 -47 45 -55 -8 -7 -160 -36 -165 -30 -12 12 33 81 57
87 36 10 37 10 63 -2z"/>
<path d="M7480 825 l0 -125 25 0 c25 0 25 1 25 85 0 102 15 125 79 125 58 0
71 -24 71 -127 0 -76 2 -83 20 -83 19 0 20 7 20 96 0 92 -1 97 -29 125 -24 23
-38 29 -73 29 -24 0 -53 -7 -64 -15 -25 -19 -34 -19 -34 0 0 8 -9 15 -20 15
-19 0 -20 -7 -20 -125z"/>
<path d="M7848 932 c-76 -47 -74 -178 3 -217 58 -31 169 -17 169 20 0 22 -16
26 -46 10 -42 -22 -79 -18 -111 9 -15 13 -25 27 -22 30 3 3 39 12 80 21 116
24 119 25 119 41 0 28 -30 74 -60 89 -38 20 -98 19 -132 -3z m110 -28 c12 -8
26 -23 32 -34 10 -19 2 -22 -124 -46 l-39 -7 7 29 c16 64 76 92 124 58z"/>
<path d="M8110 825 c0 -118 1 -125 20 -125 18 0 20 7 20 64 0 102 24 146 79
146 14 0 21 6 21 20 0 27 -39 27 -74 -1 l-26 -20 0 20 c0 14 -6 21 -20 21 -19
0 -20 -7 -20 -125z"/>
<path d="M8338 932 c-16 -9 -35 -31 -43 -48 -58 -123 69 -240 183 -168 19 13
22 13 22 -1 0 -8 9 -15 20 -15 19 0 20 7 20 125 0 118 -1 125 -20 125 -11 0
-20 -7 -20 -15 0 -19 -9 -19 -34 0 -26 20 -95 18 -128 -3z m117 -28 c20 -8 45
-56 45 -87 0 -34 -34 -74 -69 -82 -42 -9 -87 17 -100 58 -26 77 46 141 124
111z"/>
<path d="M8830 825 c0 -118 1 -125 20 -125 19 0 20 7 20 125 0 118 -1 125 -20
125 -19 0 -20 -7 -20 -125z"/>
<path d="M8998 934 c-63 -33 -79 -140 -30 -194 79 -89 232 -35 232 80 0 45
-25 93 -59 113 -35 21 -106 21 -143 1z m122 -34 c24 -13 41 -64 34 -100 -8
-38 -33 -59 -77 -67 -31 -5 -40 -1 -67 25 -18 18 -30 41 -30 57 0 31 24 81 42
88 22 9 79 7 98 -3z"/>
<path d="M9270 825 c0 -118 1 -125 20 -125 18 0 20 7 20 79 0 98 20 131 78
131 20 0 43 -4 50 -8 19 -12 32 -69 32 -139 0 -57 2 -63 21 -63 20 0 21 4 17
101 -3 96 -4 102 -31 125 -33 28 -92 32 -137 9 -27 -14 -30 -14 -30 0 0 8 -9
15 -20 15 -19 0 -20 -7 -20 -125z"/>
<path d="M3408 752 c-24 -5 -23 -39 0 -51 32 -17 58 25 30 46 -7 5 -21 8 -30
5z"/>
<path d="M6568 752 c-24 -5 -23 -39 0 -51 32 -17 58 25 30 46 -7 5 -21 8 -30
5z"/>
<path d="M9593 753 c-18 -6 -16 -50 1 -56 8 -3 22 1 33 8 28 21 -1 62 -34 48z"/>
</g>
</svg>
